<svg width="214" height="33" viewBox="0 0 214 33" fill="none" xmlns="http://www.w3.org/2000/svg">
<path d="M18.432 8.2H28.728L26.04 12.856H15.672C13.92 12.856 11.712 14.272 10.704 16L10.008 17.2C9.024 18.928 9.6 20.344 11.352 20.344H21.72L19.032 25H8.712C4.368 25 2.88 21.472 5.4 17.128L6 16.072C8.52 11.728 14.064 8.2 18.432 8.2ZM14.304 14.344H25.176L21.96 19.912H17.304L17.832 19.024H11.616L14.304 14.344ZM36.7224 13.408C34.7784 13.408 32.2824 14.992 31.1544 16.936L26.4984 25H20.7384L25.3704 16.984C28.3464 11.848 34.6344 8.2 39.7944 8.2H49.7304L46.7304 13.408H36.7224ZM40.7304 13.744H46.4904L40.0344 25H34.2744L35.7384 22.48H28.3464L31.6584 16.744H39.0504L40.7304 13.744ZM69.1185 8.2H76.1505L66.4545 25H61.6305L68.6385 12.856H66.9825C65.1105 12.856 62.7345 14.392 61.6305 16.264L59.3745 20.2H54.5505L57.1185 15.736C57.4545 15.16 57.6225 14.608 57.6225 14.176C57.6225 13.384 57.0465 12.856 56.0145 12.856H53.7585L46.7505 25H41.9265L51.6225 8.2H58.0305C60.1665 8.2 61.6785 9.088 62.3745 10.456C64.5585 9.088 67.0065 8.2 69.1185 8.2ZM56.6145 25H51.7665L54.3345 20.56H59.1585L56.6145 25ZM96.0405 8.2L93.3525 12.856H79.8165L76.5285 18.568C75.9765 19.552 76.3125 20.344 77.2725 20.344H89.0325L86.3445 25H74.2005C70.8645 25 69.7125 22.288 71.6565 18.952L77.8485 8.2H96.0405ZM87.1365 18.856H76.9365L79.6245 14.176H89.8485L87.1365 18.856ZM106.18 18.52C103.564 18.52 103.18 15.544 104.62 12.952C106.156 10.384 109.54 8.2 112.132 8.2H125.548L122.86 12.856H109.444C108.148 12.856 108.292 13.864 108.772 13.864H112.756L110.068 18.52H106.18ZM116.332 13.864C119.62 13.864 121.204 15.736 119.308 19.024C116.764 23.416 113.188 25 109.9 25H97.6603L100.348 20.344H112.588C113.308 20.344 114.22 19.72 114.436 19.312C114.868 18.592 114.028 18.52 112.924 18.52H110.644L113.332 13.864H116.332ZM141.915 12.856H123.723L126.411 8.2H144.603L141.915 12.856ZM128.139 25H123.483L130.227 13.312H134.907L128.139 25ZM156.276 8.2C160.14 8.2 161.436 11.32 159.228 15.16L157.572 18.04C155.34 21.88 150.42 25 146.58 25H142.308C138.468 25 137.148 21.88 139.38 18.04L141.036 15.16C143.244 11.32 148.164 8.2 152.004 8.2H156.276ZM152.868 18.112L154.596 15.088C155.316 13.864 154.884 12.856 153.66 12.856H149.244C148.02 12.856 146.46 13.864 145.74 15.088L143.988 18.112C143.292 19.336 143.7 20.344 144.948 20.344H149.34C150.588 20.344 152.148 19.336 152.868 18.112ZM176.016 17.176L175.92 16.768C176.28 18.16 175.944 19.912 174.84 21.856L173.016 25H168.36L170.208 21.784C171.216 20.056 170.616 18.64 168.888 18.64H163.608L166.296 13.984H174.168C174.48 13.984 174.864 13.72 175.032 13.432C175.224 13.12 175.104 12.856 174.816 12.856H161.832L164.52 8.2H177.6C180.432 8.2 181.392 10.48 179.76 13.312L179.64 13.528C178.824 14.968 177.504 16.24 176.016 17.176ZM159.504 24.976H154.848L161.64 13.216H166.296L159.504 24.976ZM202.611 8.2L199.923 12.856H186.387L183.099 18.568C182.547 19.552 182.883 20.344 183.843 20.344H195.603L192.915 25H180.771C177.435 25 176.283 22.288 178.227 18.952L184.419 8.2H202.611ZM193.707 18.856H183.507L186.195 14.176H196.419L193.707 18.856Z" fill="white"/>
<path d="M204.789 7V2.5515H203.07V1.96H207.13V2.5515H205.412V7H204.789ZM207.687 7V1.96H208.254L210.158 5.9745L212.052 1.96H212.626V6.9965H212.034V3.3285L210.323 7H209.99L208.279 3.3285V7H207.687Z" fill="white"/>
</svg>
